<?xml version="1.0" encoding="UTF-8"?>
<svg id="Layer_2" data-name="Layer 2" xmlns="http://www.w3.org/2000/svg" viewBox="0 0 945.25 944.02">
  <defs>
    <style>
      .cls-1 {
        fill: #2e2e2e;
      }
    </style>
  </defs>
  <g id="Layer_1-2" data-name="Layer 1">
    <g>
      <path class="cls-1" d="M937.02,483.5v-22.98c1.94.23,5.54-.61,7.06.44,1.22.84,1.49,18.78.79,20.9-.87,2.65-5.55,1.43-7.85,1.64Z"/>
      <path class="cls-1" d="M122.55,779.33c1.09-.1,15.05,14.4,15.24,15.48.2,1.16-3.76,5.15-4.56,5.28-1.42.25-14.9-14.34-15.24-15.61-.61-2.29,2.66-4.98,4.56-5.15Z"/>
      <path class="cls-1" d="M794.81,806.23c1.35-.24,5.93,3.94,4.92,5.91-.64,1.24-13.22,12.9-14.56,13.53-3.08,1.44-7.04-2.78-5.53-5.54,3.6-1.18,13.29-13.57,15.18-13.9Z"/>
      <path class="cls-1" d="M153.26,820.73c-1.58-1.36-7.98-7.04-8.3-8.27-.69-2.62,3.14-6.56,6.43-4.35,1.31.88,14.2,12.71,14.37,13.68-4.45,9.03-7.15,3.54-12.5-1.05Z"/>
      <path class="cls-1" d="M823.08,778.25c-.23,2.53,4.51,3.03,3.99,5.31-.22.97-11.96,13.81-13.38,14.66-3.68,2.22-7.47-1.97-6.07-5.03,4.87-3.46,8.94-10.4,12.99-14.03.83-.74,1.14-1.37,2.46-.91Z"/>
      <path class="cls-1" d="M77.78,226.64c-1.06.62-7.22-1.34-6.87-3.34.28-1.6,9.16-15.55,10.7-17.29,2.45-2.78,7.35,1.53,7.21,3.1-.1,1.03-10.14,17-11.03,17.52Z"/>
      <path class="cls-1" d="M933.03,576.41c-1.87,4.71-3.14,18.45-5.5,21.98-1.04,1.56-7.26-.72-7.49-1.03-.67-.9,5.73-18.77,5-21.96l7.99,1.01Z"/>
      <path class="cls-1" d="M159.54,117.98c2.37-.62,6.43,3.2,4.83,5.87-2.08,1.79-14.72,14.13-15.88,13.93-.8-.14-4.76-4.12-4.56-5.28,2.63-1.99,13.91-14.07,15.61-14.52Z"/>
      <path class="cls-1" d="M809.79,145.44c.45-.35.33-1.46.43-1.52,2.44-1.46,14.04,14.38,16.9,16.42l-5.48,4.53c-1.79.01-11.99-13.26-15.03-15.02-1.33-2.16,1.65-3.21,3.18-4.41Z"/>
      <path class="cls-1" d="M599.38,17c.24.32-1.84,6.93-2.61,7.05-1.08.18-20.63-4.26-21.37-5.07-.24-.27.99-6.94,1.57-7.05,7.68.31,15.03,3.17,22.41,5.07Z"/>
      <path class="cls-1" d="M35.96,309.69c1.15,1.24-6.89,18.7-7.02,21.96-2.92-.91-7.26-.26-6.8-4.24.17-1.48,6-19.11,6.84-19.73.29-.22,6.73,1.75,6.97,2.01Z"/>
      <path class="cls-1" d="M42.86,649.41c.4,5.82,7.5,14.66,8.08,19.43.27,2.25-.39,1.07-1.43,1.55s-4.35,1.93-5.02,1.95c-1.13.03-8.07-18.12-9.38-20.54.14-1.38,6.69-3.13,7.75-2.38Z"/>
      <path class="cls-1" d="M850.97,751.37c1.21,2.07-10.11,17.25-11.83,18.37-2.24,1.45-5.21-1.65-7-3.08l13.01-18.44c.52-.37,5.66,2.86,5.83,3.15Z"/>
      <path class="cls-1" d="M99.76,749.36c.89.51,11.73,15.59,11.97,16.58.46,1.89-3.18,4.91-4.43,5.21-1.48.36-1.56-.92-2.25-1.62-1.36-1.37-11.92-14.99-12.06-15.98-.26-1.81,5.23-5.07,6.77-4.19Z"/>
      <path class="cls-1" d="M293.68,34.96c-.53,2.78,3.28,5.54,1.04,7.5-.74.65-16.71,7.76-17.99,8.09-3.42.87-5.23-4.71-3.03-7.11.73-.8,19.19-9.22,19.98-8.48Z"/>
      <path class="cls-1" d="M560.42,929.03c-.69,1.54,1.28,6.61,1,6.99-.68.95-20.05,3.27-22.98,4.01l-1.01-7.99,22.98-3.01Z"/>
      <path class="cls-1" d="M331.61,915.11c.09,1.93-.82,6.26-2.6,6.86-1.01.34-19.57-5.19-20.26-5.99-.97-1.12,1.05-6.14.93-7.92l21.93,7.06Z"/>
      <path class="cls-1" d="M634.33,908.05c-.11,2.31,3.24,5.81,1.01,7.48-1.84,1.38-19.72,7.26-20.89,6.42-.31-.22-1.9-5.75-2.1-6.89l21.97-7.01Z"/>
      <path class="cls-1" d="M597.35,920.04c.31.23,2.6,6.45,1.03,7.49-3.44,2.29-17.3,3.49-21.98,5.5l-1.01-7.99c3.18.73,21.06-5.67,21.96-5Z"/>
      <path class="cls-1" d="M522.46,1.99c.34.34-.24,6.53,0,8-3.11-1.21-22.15-1.19-22.98-1.99-.34-.33.25-6.54.01-7.99,2.96,1.59,22.15,1.18,22.97,1.99Z"/>
      <path class="cls-1" d="M939.94,405.49c-.52.76-7.49,1.53-7.92,1.09,1.45-4.03-4.68-20.77-2.05-22.53,1.33-.89,5.61-.88,6.59.51.61.87,3.98,20.05,3.38,20.93Z"/>
      <path class="cls-1" d="M940.03,538.44c-.77,3.05-2.87,22.14-4.01,22.98-.37.27-5.45-1.69-6.99-1l3.01-22.98,7.99,1.01Z"/>
      <path class="cls-1" d="M28.96,612.36c.05,4.24,7.51,18.72,7.07,21.39-.09.53-5.86,2.69-6.49,2.63-1.22-.11-6.94-18.56-7.64-21.42l7.05-2.61Z"/>
      <path class="cls-1" d="M50.94,274.73c-2.7,4.38-5.69,16.8-8.48,19.99-1.96,2.24-4.72-1.56-7.5-1.04-.74-.79,7.7-19.24,8.49-19.98,2.56-2.4,4.63.75,7.49,1.03Z"/>
      <path class="cls-1" d="M9.91,422.65c.62.91-2.34,18.81-1.92,21.89H0s1.99-22.99,1.99-22.99c.45-.45,7.4.34,7.92,1.09Z"/>
      <path class="cls-1" d="M883,706.2c-.78.57-7.2-1.3-6.93-3.36.14-1.06,8.1-16.48,9.13-17.93,2.39-3.33,7.18.56,6.72,3.63-.15.98-8.13,17.07-8.93,17.66Z"/>
      <path class="cls-1" d="M14.97,383.61c1.32,1.27-3.14,19.63-3.01,22.94-.47.45-5.52-.25-6.38-.86-2.62-1.86,2.64-19.35,2.42-23.09,1.34.85,6.72.77,6.97,1.01Z"/>
      <path class="cls-1" d="M636.32,29.02c.26.36-1.85,6.89-2.57,7.01-2.19.37-17.89-6.67-21.42-7.63l2.64-6.49c2.96,1.06,20.46,5.91,21.35,7.12Z"/>
      <path class="cls-1" d="M192.64,850.97c-3.37,1.96-14.54-11.07-18.68-11.97-1.33-2.33,2.78-4.4,2.9-6.84,1.82-1.26,15.24,11.91,18.48,12.94,1.13.52-2.4,5.7-2.7,5.87Z"/>
      <path class="cls-1" d="M704.12,876.22c.28.16,3.08,5.36,2.69,5.88l-20.51,10.97c-.15-2.11-3.13-5.91-1.89-7.87.58-.92,18.77-9.53,19.71-8.98Z"/>
      <path class="cls-1" d="M295.68,902.1c.24.32-1.36,7.24-3.43,6.95-5.4-.75-13.45-7.28-19.44-8.08-.42-3.07.58-7.15,4.31-6.92,1.01.06,17.95,7.24,18.56,8.05Z"/>
      <path class="cls-1" d="M734.92,855.24c2.12-.33,5.22,4.68,3.85,6.85-.87,1.38-16.95,11.55-18.52,10.56-1.03-.65-3.23-4.35-2.58-5.57.49-.92,16.22-11.69,17.25-11.85Z"/>
      <path class="cls-1" d="M561.42,8c-.23,1.34-.77,6.9-1.57,7.05-5.55,1.02-16.21-3.69-22.41-3.06l1.01-7.99,22.97,4Z"/>
      <path class="cls-1" d="M331.61,28.91l-21.38,7.1c-1.2-2.66-2.89-5.97.13-7.85,1.45-.9,16.68-6.2,17.86-6.17,2.65.06,3.39,4.63,3.39,6.92Z"/>
      <path class="cls-1" d="M909.05,293.68c-1.79-.62-6.15,2.61-6.98,2.01-.95-.69-8.72-21.04-7.95-21.92.19-.22,5.17-1.94,5.46-1.92,1.2.09,10.27,20.94,9.47,21.83Z"/>
      <path class="cls-1" d="M915.98,308.75c.13,7.65,13.12,22.26-.32,22.97l-7.63-21.53,7.94-1.45Z"/>
      <path class="cls-1" d="M23.89,346.73c.66.91-4.09,21.12-4.94,21.86-.41.36-6.65-.79-6.88-1.05-1.4-1.64,4.55-19.44,4.92-22.9.29-.21,6.68,1.8,6.89,2.1Z"/>
      <path class="cls-1" d="M928.01,345.66c.81.78,3.36,19.12,5.02,21.95-2.4.01-5.06,1.46-7.44,1.05-1.12-.19-4.28-19.33-5.55-22.02,1.66.08,7.11-1.83,7.97-.99Z"/>
      <path class="cls-1" d="M670.17,894.2c.55.34,2.65,4.98,1.14,6.35-.83.75-16.37,7.7-18,8.09-3.49.85-5.24-5-3.03-7.11,1.33-1.27,18.49-8.21,19.88-7.33Z"/>
      <path class="cls-1" d="M258.6,891.94c-2.38,1.5-20.35-8.6-20.71-10.49s2.35-5.58,4.86-4.96c1,.25,16.25,8.44,17,9.1,1.52,1.36-.61,6.01-1.14,6.35Z"/>
      <path class="cls-1" d="M11.96,537.47c-.28,3.3,4.31,21.7,3.01,22.94-.25.24-5.63.16-6.97,1.01.12-6.15-4.41-16.61-3.04-22.32.37-1.54,5.48-1.85,7-1.63Z"/>
      <path class="cls-1" d="M368.6,925.06c.84.87-1.07,6.32-.99,7.98-2.54-1.38-21.82-4.43-22.02-5.55-.41-2.39,1.04-5.04,1.05-7.44,2.92,1.54,21.17,4.21,21.95,5.02Z"/>
      <path class="cls-1" d="M921.91,614.49c.63,1.01-5.08,20.13-5.98,20.72-1.59,1.03-5.85-1.02-7.87-.89l7-21.97c.57-.51,6.58,1.7,6.85,2.13Z"/>
      <path class="cls-1" d="M406.58,932.03l-1.58,8.03c-3.85-1.86-18.04-1.84-20.46-3.48-1.68-1.14-.76-5.55-.94-7.56l22.98,3Z"/>
      <path class="cls-1" d="M77.83,717.31c.69,4.22,10.53,14.92,10.94,17.61.34,2.19-4.46,5.44-6.69,4.13-.89-.52-10.95-16.44-11.05-17.47-.21-2.12,6.12-4.75,6.8-4.28Z"/>
      <path class="cls-1" d="M944.02,499.48c-.99,3.31-1.02,21.93-2.01,22.97-.35.36-5.61-.22-6.99.01l1-22.99h8Z"/>
      <path class="cls-1" d="M909.05,650.33c-.43,2.71-7.17,20.24-8.12,20.84-1.79,1.14-7.26-.73-6.73-4.14.72-4.65,7.26-13.2,7.87-18.72l6.98,2.01Z"/>
      <path class="cls-1" d="M739.09,82.05c.88,1.53-2.39,7.03-4.2,6.77-.86-.12-12.34-8.36-14.33-9.75-.9-.63-3.09-1.04-3.24-1.23-1-1.38,1.89-7.01,4.25-6.77,1.03.1,17,10.09,17.52,10.98Z"/>
      <path class="cls-1" d="M226.59,866.26c-.2,15.84-14.49-2.46-21.75-4.24-.43-.63,2.68-7.35,4.31-6.8,4.53,1.52,11.87,9.6,17.43,11.04Z"/>
      <path class="cls-1" d="M367.61,10.99c-.12,1.78,1.89,6.82.94,7.93-.73.85-19.03,4.12-21.89,5.06.1-2.29-2.32-5.84-.03-7.51,2.95-2.15,16.72-3.02,20.98-5.48Z"/>
      <path class="cls-1" d="M406.56,11.97c-.74.72-19.42,3.21-20.44,3.06-2.87-.41-3.21-4.19-2.58-6.44.29-1.06,20.39-4.73,21.46-4.48,2.17.51,1.87,7.55,1.56,7.85Z"/>
      <path class="cls-1" d="M765.84,832.2c1.29-.23,6.02,3.98,4.93,5.95-.47.84-13.54,10.85-15.22,11.81-3.13,1.78-5.76-.73-6.19-3.53-.17-1.09,15.4-14.03,16.48-14.23Z"/>
      <polygon class="cls-1" points="444.53 0 445.53 7.98 422.57 9.99 421.56 2 444.53 0"/>
      <path class="cls-1" d="M883,237.82c.41,4.44,10.7,16.62,8.61,19.9-1.18,1.85-4.59,3.9-6.4,1.37-1.29-1.8-8.94-16.36-9.14-17.91-.27-2.06,6.14-3.94,6.93-3.36Z"/>
      <path class="cls-1" d="M106.53,173.93c1.06-.18,5.38,2.67,5.25,4.21-.09,1.1-12.27,17.5-13.37,17.6-.82.07-5.63-3.63-5.37-5.25.18-1.14,12.37-16.37,13.49-16.56Z"/>
      <path class="cls-1" d="M782.21,116.89c1.46-.4,1.66.39,2.5.97,1.71,1.18,13.48,11.89,14,13.03,1.35,2.97-2.42,6.93-5.51,5.51-1.97-3.6-14.77-11.66-13.9-14.81.38-1.38,3.06-2.61,2.91-4.7Z"/>
      <path class="cls-1" d="M770.05,105.05c1,1.71-2.01,7.04-4.16,6.7-1.02-.16-15.81-11.92-16.22-12.89-.84-2,1.93-6.14,3.86-5.83,2.99.47,12.56,10.72,16.52,12.02Z"/>
      <path class="cls-1" d="M8,499.47c.74.77.77,18.43,1.92,21.34-.81,2.59-5.79,1.47-7.92,1.65l-1-22.99c1.35.22,6.7-.31,7,0Z"/>
      <path class="cls-1" d="M226.64,77.8c-4.88.98-13.76,10.35-17.55,10.98-1.6.27-4.04-3.15-4.16-4.54-.19-2.08,16.1-13.02,17.49-13.22,1.82-.26,5.09,5.28,4.22,6.78Z"/>
      <path class="cls-1" d="M706.14,61.05c.87,1.25-1.39,6.37-2.04,6.74-1.04.6-19.11-8.05-19.7-8.97-.8-1.26.57-5.63,1.86-6.43,3.23-2,15.41,8.25,19.87,8.66Z"/>
      <path class="cls-1" d="M861.97,204.92c.9.52,10.93,16.49,11.02,17.52.11,1.28-3.48,4.01-4.59,4.19-1.46.23-13.03-16.33-13.2-17.51-.26-1.81,5.24-5.08,6.77-4.2Z"/>
      <path class="cls-1" d="M127.29,149.26c1.21-1.28,3.62-4.46,5.07-4.45,1.91,0,4.92,3.31,4.39,5.33-.23.89-11.25,13.02-12.34,13.75-2.9,1.95-7.89-1.78-7.5-3.49.17-.74,8.88-9.57,10.37-11.14Z"/>
      <path class="cls-1" d="M855.11,736.21l11.44-18.06c1.53-2.01,6.09,1.12,6.39,2.73.23,1.22-9.73,17.22-10.84,17.92-2.12,1.33-4.58-2.59-6.99-2.58Z"/>
      <path class="cls-1" d="M672.31,43.97c-.75,1.36-2.07,6.76-3.48,6.85-1.08.07-19.09-8.46-19.39-9.52-.42-1.47,1.04-6.43,3.21-6.22,3.84.36,14.74,8.29,19.67,8.89Z"/>
      <path class="cls-1" d="M18.98,575.4c.81.74,5.24,20.28,5.07,21.37-.2,1.23-5.86,1.63-7.05,2.62-.28-5.83-5.98-17.15-5.06-22.42.1-.55,6.77-1.8,7.04-1.56Z"/>
      <path class="cls-1" d="M522.46,935.02c-.22,1.35.32,6.7,0,7-1.07,1.01-19.75.59-22.98,1.99v-7.99s22.98-1,22.98-1Z"/>
      <path class="cls-1" d="M194.66,99.76c-4.31,1.1-13.33,11.5-16.53,11.99-1.98.3-4.97-3.35-3.84-5.84.43-.94,15.1-12.73,16.1-12.96,1.71-.4,5.18,5.24,4.27,6.81Z"/>
      <path class="cls-1" d="M259.61,58.82c-.9,1.42-16.14,7.3-18.37,10.08-1.34-1.43-4.05-5.37-3.06-6.96.6-.96,17.03-9.76,18.23-9.87,2.41-.22,4.14,5.25,3.19,6.75Z"/>
      <path class="cls-1" d="M838.97,173.96c1.14,3.79,11.83,13.81,12.05,16.51.11,1.41-3.7,4.05-4.58,4.18-1.32.2-14.02-15.41-14.21-16.49-.38-2.08,5.01-5.22,6.75-4.21Z"/>
      <path class="cls-1" d="M58.83,684.41c.71,4.6,10.86,16.3,8.63,19.87-1.02,1.64-4.31,2.64-6.03,1-.72-.69-9.37-16.56-9.53-17.55-.32-2.03,5.5-4.23,6.92-3.33Z"/>
      <path class="cls-1" d="M62.53,237.82c2.36.39,5.95,2.42,5.25,5.18-.37,1.45-7.66,14.22-8.99,16.08-2.35,3.27-6.85-1.23-6.73-2.66.1-1.26,9.43-18.35,10.47-18.6Z"/>
      <path class="cls-1" d="M942.02,421.56l2,22.98h-7.99c1.38-6.14-2.55-15.84-1.05-21.36.3-1.11,5.72-1.64,7.05-1.62Z"/>
      <path class="cls-1" d="M444.54,936.02v7.99s-22.98-2-22.98-2c-.03-1.33.51-6.75,1.62-7.05,5.51-1.5,15.22,2.44,21.37,1.05Z"/>
      <rect class="cls-1" x="460.52" width="22.98" height="6.99"/>
      <rect class="cls-1" x="460.52" y="937.02" width="22.98" height="6.99"/>
      <rect class="cls-1" y="460.52" width="6.99" height="22.98"/>
      <path class="cls-1" d="M680.19,346.74c.3.25,2.01,6.79,2.04,7.46,1.25,26.25.41,57.35-.9,83.88-.23,4.66-1.36,20.3-3.56,23.41-2.61,3.71-12.86,4.8-14.73.78-3.74-8.03,3.84-31.81-1.26-37.7-1.15-1.33-3.23-1.5-4.41-2.59-7.24-6.72-15.86-13.56-23.66-19.25-2.57-1.88-17.15-12.43-18.75-12.07-3.89.87-2.65,19.28-2.64,23.43.02,12.05,1.24,24.72,1.1,36.96-.03,2.38-1.28,14.16-2.72,14.49-5.7-.22-11.41,1.08-16.33-2.53l-.08-112.98c5.13-4.42,6.22,1.56,8.85,3.6,14.75,11.48,29.42,22.72,43.73,33.92,1.4,1.1,1.94,3.08,2.8,3.69,1.07.76,9.41,5.46,10.13,5.4,1.64-.13,2.4-.97,2.52-2.58l1.14-47.31c1.33-1.33,15.66-.92,16.74-.03Z"/>
      <path class="cls-1" d="M735.57,441.21c8.67,8.49,33.32,10.07,42.96,3.18,4.65-3.32,1.72-4.42,1.66-8.35-.07-4.23,1.62-16.8-3.53-17.52-5.64-.78-19.24,5.26-20.45-5.43-1.69-14.94,3.53-10.73,13.49-10.52,9.63.21,19.21-.13,28.8.97,3.68.8.69,20.94.62,24.48-.12,5.94,1.14,30.88-1.03,33.93-1.37,1.93-4.22,2.04-6.43,1.59-2.69-.55-2.27-2.73-3.49-3.53-3.2-2.09-11.98,3.08-15.95,4.04-12.57,3.04-31.7-.77-43.04-6.97-7.86-4.3-17.73-22.16-20.19-30.76-12.12-42.25,10.04-89.56,59.44-82.42,6.32.91,30.64,8.77,23.31,17.8-.42.51-6.84,5.65-7.29,5.77-3.89,1.08-10.04-4.84-13.99-5.63-3.14-.63-15.72-1.62-18.7-1.16-.92.14-10.99,3.17-11.53,3.45s-7.14,8.08-7.84,9.14c-9.99,15.21-10.28,54.77,3.16,67.93Z"/>
      <path class="cls-1" d="M270.48,345.88c3.63,3.63.36,25.56.2,31.19-.37,12.3.04,30.59,1.32,42.72,1.17,11.16,4.68,26.49,18.16,27.8,16.4,1.6,23.88-1.61,28.8-17.25,4.83-15.33,2.55-41.12,2.75-58.18.07-6.21-1.48-21.05.13-25.85.97-2.89,16.52-2.11,17.83.04,1.79,2.93,1.15,36.54,1.02,42.8-.32,15.17-.06,37.48-5.56,51.38-1.46,3.68-8.04,16.18-11.2,17.77-9.69,4.89-33.07,7.14-43.5,4.99-4.72-.97-8.78-5.9-12.21-8.77-5.39-4.5-6-2.59-9.67-10.31-8.55-17.98-6.17-52.84-5.77-73.06.09-4.41-.97-23.12.93-25.04,2.1-2.12,14.79-2.21,16.77-.24Z"/>
      <path class="cls-1" d="M224.42,353.98c4.38,4.5,1.67,8.85-2.63,12.15-6.49,4.98-6.42.65-11.81-1.21-7.65-2.63-21.7-3.87-29.6-2.23-2.81.58-13.52,9.19-15.12,11.85-5.49,9.14-7.7,30.66-6.15,41.25,2.66,18.17,8.18,31.24,27.68,34.34,4.62.74,16.4-.86,21.02-2.07,7.3-1.91,16.14-13.21,21.78-.86,1.01,2.22,1.52,2.51.43,5.04-.2.46-6.55,7.04-6.97,7.32-14.81,9.94-40.71,8.37-56.28.49-34.01-17.22-35.21-84.64-6.28-106.26,14.55-10.88,50.91-13.19,63.91.17Z"/>
      <path class="cls-1" d="M434.55,361.62h-23.48c-.75,0-2.26,2.43-2.47,3.52-.73,3.79-.61,13.21-.82,17.96-.46,10.18-.31,20.71-.16,30.93.13,8.87,2.13,43.3-2.97,49.05-1.91,2.15-11.77,1.22-12.91.3-1.76-1.43-2.71-39.77-2.76-45.14-.15-14.44,1.21-29.61.71-44.12-.09-2.54-1.04-10.26-2.66-11.42-7.03-5.06-23.55,6.25-25.3-6.66-1.17-8.6-.11-10.55,8.39-10.83,13.2-.44,26.84,1.28,39.91,1.47,13.54.2,30.46-7.39,24.52,14.95Z"/>
      <path class="cls-1" d="M521.46,361.62h-23.48c-.34,0-2.39,1.09-2.53,1.68-.74,3.12.16,10.92.08,14.84-.24,11.95-1,23.91-1,35.88,0,9.07,1.71,42.2-2.58,48.44-2.76,4.01-10.73,1.56-14.48-.61-.12-3.92.3-7.9.04-11.82-1.7-25.32-.11-50.77-.95-75.88-.07-2.1-1.38-10.79-2.7-11.62-7.36-4.65-23.47,6.25-25.2-6.51-.93-6.82-.42-11.02,7.38-11.2,13.33-.3,27.58,1.62,40.92,1.84s30.54-7.18,24.52,14.95Z"/>
      <path class="cls-1" d="M560.32,464.44c-.64.46-15.18-1.52-15.69-2.12-.27-.31-1.08-5.26-1.17-6.32-1.48-16.55-1.69-40.24-1.05-56.96.43-11.29,3.46-24.99,3.09-35.95-.17-5.08-4.49-12.27-1.12-16.02,1.93-2.15,12.28-1.94,15.11-1,5.78,1.93,2.68,11.04,2.9,16.09.97,22.53.18,42.46.08,64.93-.04,8.85.95,18.07.95,26.93,0,1.54-2.37,9.9-3.09,10.42Z"/>
      <path class="cls-1" d="M381.6,267.73c-.41,4.15-4.98,5.59-8.49,5.99-8.46.96-20.93.66-29.98.99-15.92.58-31.64,1.64-47.44-.99-.65-2.14,1.5-2.64,3.12-3.33,6.79-2.91,18.28-.33,26.39-.62,9.95-.35,20.91-2.67,30.89-3.08,3.56-.15,24.27-.31,25.51,1.05Z"/>
      <path class="cls-1" d="M573.4,269.71c-1.64-1.69,2.1-6.84,4.74-6.83,19.68,3.88,42.03-4.93,61.24.3,4.22,1.15,13.06,4.78,5.94,8.04s-20.04-4.15-28.42-4.53c-6.3-.29-41.47,5.12-43.49,3.03Z"/>
      <path class="cls-1" d="M395.6,559.99c.15-2.69,5.05-9.18,6.46-12.59,5.12-12.42,4.07-23.88-4.08-34.32-6.07-7.78-14.25-11.22-23.99-12.48-8.77-1.14-20.97-.34-29.86-.13-3.35.08-11.46-1.16-13.4,1.58l-1.07,118.3c1.04.87,17.72.15,20.47,0,22.42-1.25,48.76-2.07,54.01-28.91,1.3-6.67,1.46-12.36-1.36-18.72-1.74-3.92-7.42-8.17-7.17-12.72ZM350.13,518.45c.9-1.06,17.84-1.56,21.31-1.73,2.21-.11,2.47-.63,4.73.69,3.93,2.3,8.89,9.88,9.43,14.53,2.18,18.76-15.8,21.19-30.48,19.5-8.52-.98-5.11-9.61-5.44-16.54-.2-4.23-2.7-12.76.45-16.45ZM380.65,596.92c-7.13,7.29-23,7.59-32.01,3.45v-24.47c0-.92,1.58-3.97,1.46-5.54,8.68-1.44,23.91-4.93,31.43,1.62,1.16,1.01,5.83,9.63,5.83,10.71.02,3.98-3.87,11.33-6.71,14.23Z"/>
      <path class="cls-1" d="M609.87,589.38c-2.18-4.87-10.38-13.11-5.98-18.95,1.39-1.84,3.93-2.58,5.49-4.5,7.17-8.82,11.97-21.36,10.84-32.87-.32-3.22-3.56-15.34-5-17.97-.43-.79-12.3-11.93-13.08-12.38-.93-.53-18.6-2.09-21.26-2.23-7.18-.39-13.15.67-19.93,1.03-4.15.22-17.35-1.5-19.03,1.95l.7,114.7c3.54,1.38,16.74,2.09,18.62-.98,2.44-3.98-2.97-34.21-.66-41.13,1.41-4.2,17.19-4.23,20.93-2.08l17.28,43.45c2.99,2.12,19.47,2.73,20.52-.68-.28-3.85-3.16-6.91-4.43-10.41-1.84-5.05-2.94-12.34-5.01-16.97ZM593.78,553.32c-.63.38-6.44,2.1-6.89,2.1h-24.47c-.46-1.83-.9-3.52-1.05-5.45-.46-5.9-.91-23.84.07-29,1.22-6.41,7.98-3.58,11.48-3.52,6.04.1,17.75-1.2,22.2,3.26.37.37,5.54,8.27,5.71,8.77,1.87,5.4-2.09,20.8-7.04,23.84Z"/>
      <path class="cls-1" d="M546.8,777.32c-10.99-4.16-17.42-2.55-26.39,4.47-10.34-7.72-24.89-13.4-34.85-21.16-1.53-1.19-7.65-7.78-7.9-9.07-.52-2.61,6.77-9.9,8.82-11.85,3.38-3.22,32.15-26.66,34.29-26.33.77.12,3.75,2.67,5.68,3.36,16.28,5.79,29.42-11.98,19.98-26.45,5.41.58,12.49-14.68,6.46-15.98-2.97-.64-4.15,9.55-8.16,10.8-3.84,1.19-8.26-2.18-12.78-2.26-13.37-.25-20.35,12.17-16.55,24.33l-53.35,30.99-96.85-30.86c-3.35,2.26-.5,3.69,1.72,5.15l74.61,37.78-72.9,44.44,3.45,1.55,93.93-33.62,50.28,25.73c-4.21,23.04,32.58,40.22,44.94,19.15,7.99-13.62-1.51-25.27-14.44-30.16ZM528.16,690.5c17.05-3.93,19.62,18.68,8.54,21.51-18.01,4.6-20.95-18.65-8.54-21.51ZM465.52,755.73c-6.97,3.47-9.25-7.06-5.36-8.37,6.63-2.23,10.75,5.69,5.36,8.37ZM553.35,806.58c-10.22,10.62-37.47-5.66-25.33-20.34,1.01-1.22,3.73-3.45,5.18-3.81,13.44-3.42,31.96,11.89,20.16,24.15Z"/>
      <path class="cls-1" d="M540.45,271.23c-8.75,8.18-32.93,23.63-31.97.49,12.13,4.39,33.23-2.65,29.76-18.26-2.73-12.27-22.91-8.55-30.26-1.71-7.45,6.94-8.19,16.62-12.44,22.52-.93,1.29-14.32,9.22-15.03,8.44-.61-9.81,5.42-18.26,3.75-28.23-1.63-9.71-10.64-10.17-18.43-6.93-2.94,1.22-4.4,3.63-7.29,4.19-.36-6.72,9.63-41.32,5.05-44.51-3.95-2.75-35.55,1.69-42.23,2.85-8.24,1.44-26.11,4.46-32.27,9.68-4.24,3.59-6.78,15.25-5.27,20.29.61,2.02,11.82,12.65,14.27,12.62.7,0,5.21-1.81,5.36-2.05,2.92-4.7-9.45-9.59-10.64-13.56-.68-2.28-.21-8.48,1.31-10.26,2.73-3.19,20.62-5.01,25.45-6.01-1.8,10.46-2.93,21.09-4.9,31.52-.83,4.37-2.33,10.34-3.38,15.63-1.73,8.74-12.06,35.77,6.09,24.08l14.82-74.27c6.15.14,14.1-3,19.94-2.91,1.07.02,2.03.53,2.31,1.57.45,1.66-3.3,15.56-3.78,18.99-1.01,7.18-1.29,14.51-2.28,21.7-.69,5.03-5.76,30.33-4.38,32.62,1.27,2.11,8.65,3.02,10.06,1.03,2.31-3.27,2-20.16,3.56-25.41,2.4-8.08,16.95-10.56,16.89-9.08-7.76,24.86-6.98,49.82,23.45,26.44,8.58,13.26,25.17,12.09,37.39,4.42,6-3.77,20.03-17.13,20.87-24.13,1.62-13.55-13.91,6.51-15.77,8.25ZM526.99,258.22c.06,6.27-11.69,6.57-16.52,6.5.18-7.09,16.41-18.59,16.52-6.5Z"/>
      <path class="cls-1" d="M473.49,502.48c-4.21-2.89-7.33,11.17-8.48,13.97-11.32,27.45-23.93,56.35-36.28,83.6-2.6,5.73-7.77,11.03-7.08,18.21,1.29,1.86,16.54.98,19.73.93,1.18-3.34,10.16-27.64,11.8-27.88,4.24.66,9.66,1.87,13.84,2.06,5.93.28,19.23-1.17,23.77.2,4.72,1.43,9.11,23.37,12.88,25.57.83.49,17.53,1.92,18.7-1.41l-48.89-115.24ZM481,576.4c-4.93,0-12.52.71-16.98,0-.39-.06-2.48-1.08-2.57-1.64-.26-1.68,6.79-19.94,8.17-21.72,1.81-2.34,4.16-2.52,5.71.06.48.79,6.48,16.09,6.75,17.23.35,1.5.92,6.07-1.08,6.07Z"/>
    </g>
    <path class="cls-1" d="M782.66,170.53C543.83-73.7,126.59,41.64,50.27,373.9c-78.08,339.93,255.97,629.41,581.2,501.28,285.23-112.37,366.9-484.07,151.19-704.66ZM627.42,864.97C310.45,989.85-15.12,707.71,60.98,376.42,135.36,52.59,542-59.82,774.77,178.21c210.24,214.99,130.63,577.25-147.35,686.76Z"/>
  </g>
</svg>