<?xml version="1.0" encoding="UTF-8"?>
<svg id="Layer_2" data-name="Layer 2" xmlns="http://www.w3.org/2000/svg" viewBox="0 0 893.43 414.49">
  <defs>
    <style>
      .cls-1 {
        fill: #2e2e2e;
      }
    </style>
  </defs>
  <g id="Layer_1-2" data-name="Layer 1">
    <g>
      <path class="cls-1" d="M258.03,306.75c8.15,10.44,9.2,21.9,4.08,34.32-1.4,3.41-6.31,9.89-6.46,12.59-.25,4.55,5.43,8.8,7.17,12.72,2.82,6.36,2.66,12.06,1.36,18.72-5.2,26.59-31.59,27.93-54.01,28.91-6.8.3-13.67-.19-20.47,0l1.07-118.3c1.93-2.73,10.05-1.5,13.4-1.58,8.89-.21,21.08-1.01,29.86.13,9.74,1.26,17.92,4.7,23.99,12.48ZM231.49,310.38c-3.47.17-20.4.68-21.31,1.73-3.15,3.69-.65,12.22-.45,16.45.32,6.94-3.09,15.56,5.44,16.54,14.68,1.69,32.66-.74,30.48-19.5-.54-4.65-5.5-12.24-9.43-14.53-2.26-1.32-2.52-.8-4.73-.69ZM208.69,394.04c9.01,4.13,24.88,3.84,32.01-3.45,2.84-2.91,6.73-10.25,6.71-14.23,0-1.08-4.67-9.7-5.83-10.71-7.53-6.55-22.75-3.06-31.43-1.62.12,1.57-1.46,4.62-1.46,5.54v24.47Z"/>
      <path class="cls-1" d="M462.2,296.39c.78.45,12.64,11.59,13.08,12.38,1.44,2.63,4.68,14.75,5,17.97,1.13,11.5-3.67,24.05-10.84,32.87-1.56,1.92-4.1,2.66-5.49,4.5-4.4,5.84,3.8,14.08,5.98,18.95,2.07,4.63,3.17,11.92,5.01,16.97,1.27,3.5,4.16,6.57,4.43,10.41-1.05,3.41-17.53,2.79-20.52.68l-17.28-43.45c-3.74-2.15-19.52-2.12-20.93,2.08-2.3,6.92,3.11,37.14.66,41.13-1.88,3.07-15.08,2.36-18.62.98l-.7-114.7c1.68-3.45,14.88-1.73,19.03-1.95,6.78-.36,12.75-1.43,19.93-1.03,2.66.15,20.33,1.7,21.26,2.23ZM422.47,349.09h24.47c.45,0,6.27-1.71,6.89-2.1,4.95-3.03,8.91-18.43,7.04-23.84-.17-.49-5.34-8.4-5.71-8.77-4.45-4.47-16.16-3.17-22.2-3.26-3.5-.06-10.26-2.89-11.48,3.52-.98,5.15-.53,23.1-.07,29,.15,1.92.59,3.62,1.05,5.45Z"/>
      <path class="cls-1" d="M540.24,140.41c.3.25,2.01,6.79,2.04,7.46,1.25,26.25.41,57.35-.9,83.88-.23,4.66-1.36,20.3-3.56,23.41-2.61,3.71-12.86,4.8-14.73.78-3.74-8.03,3.84-31.81-1.26-37.7-1.15-1.33-3.23-1.5-4.41-2.59-7.24-6.72-15.86-13.56-23.66-19.25-2.57-1.88-17.15-12.43-18.75-12.07-3.89.87-2.65,19.28-2.64,23.43.02,12.05,1.24,24.72,1.1,36.96-.03,2.38-1.28,14.16-2.72,14.49-5.7-.22-11.41,1.08-16.33-2.53l-.08-112.98c5.13-4.42,6.22,1.56,8.85,3.6,14.75,11.48,29.42,22.72,43.73,33.92,1.4,1.1,1.94,3.08,2.8,3.69,1.07.76,9.41,5.46,10.13,5.4,1.64-.13,2.4-.97,2.52-2.58l1.14-47.31c1.33-1.33,15.66-.92,16.74-.03Z"/>
      <path class="cls-1" d="M595.62,234.87c8.67,8.49,33.32,10.07,42.96,3.18,4.65-3.32,1.72-4.42,1.66-8.35-.07-4.23,1.62-16.8-3.53-17.52-5.64-.78-19.24,5.26-20.45-5.43-1.69-14.94,3.53-10.73,13.49-10.52,9.63.21,19.21-.13,28.8.97,3.68.8.69,20.94.62,24.48-.12,5.94,1.14,30.88-1.03,33.93-1.37,1.93-4.22,2.04-6.43,1.59-2.69-.55-2.27-2.73-3.49-3.53-3.2-2.09-11.98,3.08-15.95,4.04-12.57,3.04-31.7-.77-43.04-6.97-7.86-4.3-17.73-22.16-20.19-30.76-12.11-42.21,10.07-89.55,59.44-82.42,6.32.91,30.64,8.77,23.31,17.8-.42.51-6.84,5.65-7.29,5.77-3.89,1.08-10.04-4.84-13.99-5.63-3.14-.63-15.72-1.62-18.7-1.16-.92.14-10.99,3.17-11.53,3.45s-7.14,8.08-7.84,9.14c-9.99,15.21-10.28,54.77,3.16,67.93Z"/>
      <path class="cls-1" d="M318.58,45.4c2.89-.55,4.36-2.96,7.29-4.19,7.79-3.24,16.8-2.79,18.43,6.93,1.68,9.97-4.36,18.42-3.75,28.23.71.79,14.1-7.15,15.03-8.44,4.25-5.9,4.99-15.58,12.44-22.52,7.24-6.74,27.47-10.8,30.26,1.71,3.47,15.61-17.63,22.66-29.76,18.26-.96,23.14,23.23,7.69,31.97-.49,1.86-1.74,17.4-21.8,15.77-8.25-.84,7-14.86,20.36-20.87,24.13-12.22,7.67-28.81,8.84-37.39-4.42-6.72,4.27-12.18,10.22-21.01,9.07-13.21-1.72-3.91-25.1-3.46-32.54.1-1.61.87-3.88-1.36-3.37-3.71.85-11.71,4.03-13.48,7.51-3.18,6.25-1.23,20.86-4.11,27.63-1.23,2.89-11.48,1.28-11.54-3.35l11.53-71.85c-1.07-.76-19.07,1.36-21.32,2.14-1.19.42-1.48,1.18-1.66,2.34l-13.47,69.45c.04,5.15-7.35,6.65-10.26,3.74-3.13-3.12,2.49-20.61,3.46-25.53,1.05-5.29,2.55-11.26,3.38-15.63,1.98-10.43,3.1-21.06,4.9-31.52-4.82,1.01-22.72,2.82-25.45,6.01-1.53,1.79-2,7.98-1.31,10.26,1.19,3.97,13.56,8.87,10.64,13.56-.15.24-4.66,2.05-5.36,2.05-2.68.03-13.56-9.55-14.27-12.63-1.18-5.11.74-16.07,4.73-19.82,5.91-5.55,24.58-8.71,32.81-10.15,6.68-1.16,38.27-5.6,42.23-2.85,4.58,3.19-5.42,37.79-5.05,44.51ZM370.53,58.38c4.83.07,16.58-.22,16.52-6.5-.11-12.1-16.34-.59-16.52,6.5Z"/>
      <path class="cls-1" d="M130.54,139.54c3.63,3.63.36,25.56.2,31.19-.37,12.3.04,30.59,1.32,42.72,1.17,11.16,4.68,26.49,18.16,27.8,16.4,1.6,23.88-1.61,28.8-17.25,4.83-15.33,2.55-41.12,2.75-58.18.07-6.21-1.48-21.05.13-25.85.97-2.89,16.52-2.11,17.83.04,1.79,2.93,1.15,36.54,1.02,42.8-.32,15.17-.06,37.48-5.56,51.38-1.46,3.68-8.04,16.18-11.2,17.77-9.69,4.89-33.07,7.14-43.5,4.99-4.72-.97-8.78-5.9-12.21-8.77-5.39-4.5-6-2.59-9.67-10.31-8.55-17.98-6.17-52.84-5.77-73.06.09-4.41-.97-23.12.93-25.04,2.1-2.12,14.79-2.21,16.77-.24Z"/>
      <path class="cls-1" d="M333.49,296.2l48.94,115.2c-1.18,3.34-17.87,1.9-18.7,1.41-3.77-2.2-8.16-24.14-12.88-25.57s-17.84.08-23.77-.2c-4.18-.2-9.6-1.4-13.84-2.06-1.64.24-10.63,24.54-11.8,27.88-3.2.05-18.44.94-19.73-.93-.68-7.18,4.49-12.48,7.08-18.21,11.4-25.14,21.58-52.06,32.7-77.09,2.99-2.65,7.5-19.28,9.2-20.37.59-.37,1.95-.07,2.81-.06ZM324.07,370.06c4.46.71,12.05,0,16.98,0,1.99,0,1.43-4.57,1.08-6.07-.27-1.14-6.27-16.44-6.75-17.23-1.55-2.58-3.89-2.41-5.71-.06-1.38,1.78-8.43,20.04-8.17,21.72.09.56,2.18,1.58,2.57,1.64Z"/>
      <path class="cls-1" d="M84.47,147.64c4.38,4.5,1.67,8.85-2.63,12.15-6.49,4.98-6.42.65-11.81-1.21-7.65-2.63-21.7-3.87-29.6-2.23-2.81.58-13.52,9.19-15.12,11.85-5.49,9.14-7.7,30.66-6.15,41.25,2.66,18.17,8.18,31.24,27.68,34.34,4.62.74,16.4-.86,21.02-2.07,7.3-1.91,16.14-13.21,21.78-.86,1.01,2.22,1.52,2.51.43,5.04-.2.46-6.55,7.04-6.97,7.32-14.81,9.94-40.71,8.37-56.28.49-34.07-17.26-35.19-84.65-6.28-106.26,14.55-10.87,50.91-13.19,63.91.17Z"/>
      <path class="cls-1" d="M294.6,155.29h-23.48c-.75,0-2.26,2.43-2.47,3.52-.73,3.79-.61,13.21-.82,17.96-.46,10.18-.31,20.71-.16,30.93.13,8.87,2.13,43.3-2.97,49.05-1.91,2.15-11.77,1.22-12.91.3-1.76-1.43-2.71-39.77-2.76-45.14-.15-14.44,1.21-29.61.71-44.12-.09-2.54-1.04-10.26-2.66-11.42-7.03-5.06-23.55,6.25-25.3-6.66-1.17-8.6-.11-10.55,8.39-10.83,13.2-.44,26.84,1.28,39.91,1.47s30.46-7.39,24.52,14.95Z"/>
      <path class="cls-1" d="M381.51,155.29h-23.48c-.34,0-2.39,1.09-2.53,1.68-.74,3.12.16,10.92.08,14.84-.24,11.95-1,23.91-1,35.88,0,9.07,1.71,42.2-2.58,48.44-2.76,4.01-10.73,1.56-14.48-.61-.12-3.92.3-7.9.04-11.82-1.7-25.32-.11-50.77-.95-75.88-.07-2.1-1.38-10.79-2.7-11.62-7.36-4.65-23.47,6.25-25.2-6.51-.93-6.82-.42-11.02,7.38-11.2,13.33-.3,27.58,1.62,40.92,1.84,13.41.22,30.54-7.18,24.52,14.95Z"/>
      <path class="cls-1" d="M420.37,258.11c-.64.46-15.18-1.52-15.69-2.12-.27-.31-1.08-5.26-1.17-6.32-1.48-16.55-1.69-40.24-1.05-56.96.43-11.29,3.46-24.99,3.09-35.95-.17-5.08-4.49-12.27-1.12-16.02,1.93-2.15,12.28-1.94,15.11-1,5.78,1.93,2.68,11.04,2.9,16.09.97,22.53.18,42.46.08,64.93-.04,8.85.95,18.07.95,26.93,0,1.54-2.37,9.9-3.09,10.42Z"/>
      <path class="cls-1" d="M241.65,61.39c-.41,4.15-4.98,5.59-8.49,5.99-8.46.96-20.93.66-29.98.99-15.92.58-31.64,1.64-47.44-.99-.65-2.14,1.5-2.64,3.12-3.33,6.79-2.91,18.28-.33,26.39-.62,9.95-.35,20.91-2.67,30.89-3.08,3.56-.15,24.27-.31,25.51,1.05Z"/>
      <path class="cls-1" d="M433.45,63.38c-1.64-1.69,2.1-6.84,4.74-6.83,19.31,4.06,42.76-5.14,61.41.13,2.74.77,11.89,4.48,7.17,7.59-7.01,4.62-21.31-3.52-29.82-3.92-6.3-.29-41.47,5.12-43.49,3.03Z"/>
      <path class="cls-1" d="M187.71,412.03c2.11,2.67-5.14,3.64-3.98.51.59-1.61,3.48-1.14,3.98-.51Z"/>
    </g>
    <path class="cls-1" d="M875.69,142.45c9.44,14.47-3.7,32.23-19.98,26.45-1.93-.69-4.91-3.24-5.68-3.36-2.14-.33-30.91,23.11-34.29,26.33-2.05,1.95-9.34,9.24-8.82,11.85.26,1.3,6.37,7.88,7.9,9.07,9.96,7.75,24.51,13.44,34.85,21.16,8.97-7.02,15.4-8.63,26.39-4.47,12.93,4.89,22.43,16.54,14.44,30.16-12.36,21.07-49.15,3.89-44.94-19.15l-50.28-25.73c-27.41,8.55-53.75,20.38-80.9,29.59-2.37.8-14.26,5.23-15.5,3.97-.11-.11-.41-2.82.63-3.06l71.3-42.87-74.61-37.78c-2.22-1.46-5.07-2.9-1.72-5.15l96.85,30.86,53.35-30.99c-3.79-12.15,3.18-24.58,16.55-24.33,4.52.09,8.94,3.46,12.78,2.26s5.18-11.44,8.16-10.8c6.03,1.3-1.05,16.56-6.46,15.98ZM857.42,142.65c-12.41,2.86-9.47,26.12,8.54,21.51,11.08-2.83,8.51-25.44-8.54-21.51ZM789.42,199.51c-3.9,1.31-1.61,11.84,5.36,8.37,5.39-2.68,1.28-10.6-5.36-8.37ZM781.79,214.37l-7.99,3.98c2.78-.02,6.55-1.44,7.99-3.98ZM862.45,234.59c-1.45.37-4.17,2.59-5.18,3.81-12.13,14.68,15.11,30.96,25.33,20.34,11.8-12.26-6.72-27.57-20.16-24.15Z"/>
  </g>
</svg>